<svg width="260" height="170" viewBox="0 0 260 170" fill="none" xmlns="http://www.w3.org/2000/svg" role="img" aria-labelledby="title desc">
  <title id="title">KF Studios</title>
  <desc id="desc">Logo elegante da KF Studios com monograma e íris fotográfica.</desc>
  <defs>
    <linearGradient id="rose" x1="37" y1="8" x2="184" y2="142" gradientUnits="userSpaceOnUse">
      <stop stop-color="#ffd1dc"/>
      <stop offset="0.26" stop-color="#ff5f91"/>
      <stop offset="0.57" stop-color="#b4144d"/>
      <stop offset="0.83" stop-color="#ff8db3"/>
      <stop offset="1" stop-color="#fff2f6"/>
    </linearGradient>
    <filter id="glow" x="-30%" y="-30%" width="160%" height="160%">
      <feDropShadow dx="0" dy="0" stdDeviation="3" flood-color="#ff3b7d" flood-opacity="0.7"/>
      <feDropShadow dx="0" dy="10" stdDeviation="12" flood-color="#590016" flood-opacity="0.65"/>
    </filter>
  </defs>
  <g filter="url(#glow)">
    <text x="12" y="86" font-family="Georgia, 'Times New Roman', serif" font-size="94" letter-spacing="-8" fill="url(#rose)">KF</text>
    <circle cx="154" cy="65" r="27" stroke="url(#rose)" stroke-width="4"/>
    <path d="M153.8 38.5l-8 26.6 24.4-12.4-16.4-14.2zM180.4 62.7l-26.3 2.5 17.4 20.1 8.9-22.6zM163.2 92.1l-9.4-26.8-14.5 24.2 23.9 2.6zM132.2 81.6l21.6-16.2-25.2-8.2 3.6 24.4zM132.8 47.8l21.2 17.5 2.8-27.6-24 10.1z" stroke="#ffd6e2" stroke-width="2.1" stroke-linejoin="round" opacity="0.9"/>
    <path d="M174 35c5.5 1.2 9.2 4.9 10.4 10.4 1.3-5.5 4.9-9.2 10.5-10.4-5.6-1.2-9.2-4.9-10.5-10.4-1.2 5.5-4.9 9.2-10.4 10.4z" fill="#ffd6e2"/>
  </g>
  <path d="M28 111h58M174 111h58" stroke="#ff5f91" stroke-width="1.4" stroke-linecap="round" opacity="0.75"/>
  <text x="47" y="128" font-family="Montserrat, Arial, sans-serif" font-size="22" letter-spacing="13" fill="#fff6f9">STUDIOS</text>
  <text x="83" y="151" font-family="Montserrat, Arial, sans-serif" font-size="12" letter-spacing="6" fill="#ff7fa8">FOTOGRAFIA</text>
</svg>
